<?xml version="1.0" standalone="no"?>
<!DOCTYPE svg PUBLIC "-//W3C//DTD SVG 20010904//EN" "http://www.w3.org/TR/2001/REC-SVG-20010904/DTD/svg10.dtd">
<svg version="1.0" xmlns="http://www.w3.org/2000/svg" width="200.000000pt" height="200.000000pt"
    viewBox="0 0 200.000000 200.000000" preserveAspectRatio="xMidYMid meet">

    <g transform="translate(0.000000,200.000000) scale(0.100000,-0.100000)" fill="#000000" stroke="none">
        <path d="M870 1910 c-329 -46 -613 -270 -735 -579 -67 -171 -79 -385 -32 -562
91 -344 360 -599 707 -671 121 -25 295 -20 415 11 233 62 450 231 569 443 79
143 124 347 112 510 -12 156 -72 331 -156 454 -88 127 -231 248 -371 313 -152
71 -353 102 -509 81z m460 -736 c143 -92 260 -169 260 -173 0 -4 -102 -33
-227 -66 -126 -32 -234 -60 -240 -63 -9 -3 -13 7 -13 30 l0 35 128 32 c70 18
139 36 155 39 15 4 27 12 28 17 0 6 -69 54 -152 108 -134 85 -169 105 -169 94
0 -9 -160 -561 -164 -565 -3 -2 -23 6 -44 19 -96 59 -490 314 -488 316 4 5
463 123 476 123 7 0 10 -13 8 -32 l-3 -32 -157 -39 c-87 -22 -158 -42 -158
-46 1 -3 74 -52 163 -108 106 -67 164 -98 168 -90 3 7 41 137 85 289 43 153
80 278 82 278 1 0 120 -75 262 -166z" />
    </g>
</svg>